<svg width="214" height="62" viewBox="0 0 214 62" fill="none" xmlns="http://www.w3.org/2000/svg">
<path d="M9 17H0.5L16 34H24.5L9 17Z" fill="#00A5DF"/>
<path d="M8.5 52H0L16 34H24.5L8.5 52Z" fill="#EB8C24"/>
<path d="M45.5 52H54.5L39 34H30.5L45.5 52Z" fill="#863B93"/>
<path d="M45.5 17H54.5L39 34H30.5L45.5 17Z" fill="#49B449"/>
<rect x="24" width="6" height="52" fill="#E62E83"/>
<path d="M68.0898 26.8105V24.5781H74.418V40.4688H76.6328L80.6934 35.4414L78.9531 35.2129V32.9805H86.916V35.2129L84.5957 35.6699L79.5859 41.6465L85.6855 49.3633L87.8477 49.7852V52H79.9551V49.7852L81.7305 49.5566L76.6855 43.2285H74.418V49.293L77.2832 49.7852V52H68.0898V49.7852L70.9551 49.293V27.3027L68.0898 26.8105ZM92.6268 49.7852L95.492 49.293V35.7051L92.6268 35.2129V32.9805H98.9549V49.293L101.82 49.7852V52H92.6268V49.7852ZM98.9549 28.1113H95.492V24.5781H98.9549V28.1113ZM106.125 49.7852L108.99 49.293V35.7051L106.125 35.2129V32.9805H112.084L112.33 35.8105C112.963 34.8027 113.754 34.0234 114.703 33.4727C115.664 32.9102 116.754 32.6289 117.972 32.6289C120.023 32.6289 121.611 33.2324 122.736 34.4395C123.861 35.6348 124.424 37.4863 124.424 39.9941V49.293L127.289 49.7852V52H118.095V49.7852L120.961 49.293V40.0645C120.961 38.3887 120.627 37.1992 119.959 36.4961C119.302 35.793 118.295 35.4414 116.935 35.4414C115.939 35.4414 115.054 35.6816 114.281 36.1621C113.519 36.6426 112.91 37.2988 112.453 38.1309V49.293L115.318 49.7852V52H106.125V49.7852ZM144.601 49.7324C143.98 50.5996 143.218 51.2559 142.316 51.7012C141.425 52.1465 140.388 52.3691 139.205 52.3691C136.884 52.3691 135.068 51.5312 133.755 49.8555C132.455 48.168 131.804 45.9531 131.804 43.2109V42.8418C131.804 39.7832 132.455 37.3164 133.755 35.4414C135.068 33.5664 136.896 32.6289 139.24 32.6289C140.365 32.6289 141.355 32.8398 142.21 33.2617C143.078 33.6719 143.816 34.2695 144.425 35.0547V27.3027L141.56 26.8105V24.5781H144.425H147.888V49.293L150.753 49.7852V52H144.882L144.601 49.7324ZM135.267 43.2109C135.267 45.1211 135.66 46.6562 136.445 47.8164C137.23 48.9766 138.443 49.5566 140.084 49.5566C141.115 49.5566 141.982 49.3223 142.685 48.8535C143.388 48.3848 143.968 47.7227 144.425 46.8672V38.043C143.98 37.2461 143.4 36.6133 142.685 36.1445C141.97 35.6758 141.115 35.4414 140.119 35.4414C138.466 35.4414 137.242 36.127 136.445 37.498C135.66 38.8691 135.267 40.6504 135.267 42.8418V43.2109ZM155.568 35.2129V32.9805H161.527L161.861 35.7402C162.4 34.7676 163.062 34.0059 163.847 33.4551C164.644 32.9043 165.552 32.6289 166.572 32.6289C166.841 32.6289 167.117 32.6523 167.398 32.6992C167.691 32.7344 167.913 32.7754 168.066 32.8223L167.609 36.0391L165.64 35.9336C164.726 35.9336 163.958 36.1504 163.337 36.584C162.716 37.0059 162.236 37.6035 161.896 38.377V49.293L164.761 49.7852V52H155.568V49.7852L158.433 49.293V35.7051L155.568 35.2129ZM180.966 52.3691C178.318 52.3691 176.208 51.4902 174.638 49.7324C173.079 47.9629 172.3 45.6719 172.3 42.8594V42.0859C172.3 39.3789 173.103 37.1289 174.708 35.3359C176.325 33.5312 178.236 32.6289 180.439 32.6289C182.993 32.6289 184.927 33.4023 186.239 34.9492C187.564 36.4961 188.226 38.5586 188.226 41.1367V43.2988H175.886L175.833 43.3867C175.868 45.2148 176.331 46.7207 177.222 47.9043C178.113 49.0762 179.361 49.6621 180.966 49.6621C182.138 49.6621 183.163 49.498 184.042 49.1699C184.933 48.8301 185.7 48.3672 186.345 47.7812L187.698 50.0312C187.019 50.6875 186.116 51.2441 184.991 51.7012C183.878 52.1465 182.536 52.3691 180.966 52.3691ZM180.439 35.3535C179.279 35.3535 178.288 35.8457 177.468 36.8301C176.648 37.8027 176.144 39.0273 175.956 40.5039L175.991 40.5918H184.763V40.1348C184.763 38.7754 184.4 37.6387 183.673 36.7246C182.946 35.8105 181.868 35.3535 180.439 35.3535ZM206.628 49.7324C206.007 50.5996 205.245 51.2559 204.343 51.7012C203.452 52.1465 202.415 52.3691 201.231 52.3691C198.911 52.3691 197.095 51.5312 195.782 49.8555C194.481 48.168 193.831 45.9531 193.831 43.2109V42.8418C193.831 39.7832 194.481 37.3164 195.782 35.4414C197.095 33.5664 198.923 32.6289 201.267 32.6289C202.392 32.6289 203.382 32.8398 204.237 33.2617C205.105 33.6719 205.843 34.2695 206.452 35.0547V27.3027L203.587 26.8105V24.5781H206.452H209.915V49.293L212.78 49.7852V52H206.909L206.628 49.7324ZM197.294 43.2109C197.294 45.1211 197.687 46.6562 198.472 47.8164C199.257 48.9766 200.47 49.5566 202.11 49.5566C203.142 49.5566 204.009 49.3223 204.712 48.8535C205.415 48.3848 205.995 47.7227 206.452 46.8672V38.043C206.007 37.2461 205.427 36.6133 204.712 36.1445C203.997 35.6758 203.142 35.4414 202.146 35.4414C200.493 35.4414 199.269 36.127 198.472 37.498C197.687 38.8691 197.294 40.6504 197.294 42.8418V43.2109Z" fill="black"/>
</svg>
